# xmcd
#
# Track frame offsets:
#	150
#	21412
#	32073
#	52712
#	69033
#	81035
#	92932
#	112955
#	138004
#	160913
#	171842
#	189871
#	202973
#	228088
#	244128
#	249750
#	264901
#	280484
#	292654
#	332566
#
# Disc length: 4659
#
# Revision: 2
# Processed by: cddbd v1.5.1PL0 Copyright (c) Steve Scherf et al.
# Submitted via: CDex 1.51
# Normalized: r1:DSETVAR1
#
DISCID=f7123114
DTITLE=Various Artist - First Song
DYEAR=2004
DGENRE=Dream
TTITLE0=Twain, Shania - White, Bryan - From This Moment On
TTITLE1=Louis Armstrong - What A Wonderful World
TTITLE2=Celine Dion - Because You Loved Me
TTITLE3=Mariah Carry - I Cant Live Without You
TTITLE4=Frank Sinatra - Love And Marriage
TTITLE5=Frank Sinatra - Strangers In The Night
TTITLE6=Lionel Richie - Endless Love
TTITLE7=Adriano Celentano - Ja Tebia Liubliu
TTITLE8=Mariah Carey and Whitney Houston - When You Believe
TTITLE9=Roy  Orbison - All i have to do is dream
TTITLE10=Dana Glover - It Is You (I Have Loved)
TTITLE11=Various Artist - Knockin` On Heaven`s Door \ Av
TTITLE12=Bobby McFerrin - Don't Worry-Be Happy
TTITLE13=Tom Jones feat. Mousse T. - Sexbomb
TTITLE14=Eddie Murphy - I'm A Believer (Reprise)
TTITLE15=Smash Mouth - All Star
TTITLE16=Moby - Flower
TTITLE17=Henry Mancini - The Pink Panther Theme
TTITLE18=Alan Silvestri - Forrest Gump Suite
TTITLE19=Madonna - Crazy For You
EXTD=YEAR: 2004
EXTT0=
EXTT1=
EXTT2=
EXTT3=
EXTT4=
EXTT5=
EXTT6=
EXTT7=
EXTT8=
EXTT9=
EXTT10=
EXTT11=
EXTT12=
EXTT13=
EXTT14=
EXTT15=
EXTT16=
EXTT17=
EXTT18=
EXTT19=
PLAYORDER=
